<svg width="210" height="16" viewBox="0 0 210 16" fill="none" xmlns="http://www.w3.org/2000/svg">
<path d="M5.12 7.3H11.86L11.32 9.9H4.6L5.12 7.3ZM3.84 15H0.58L3.38 0.999999H13.96L13.42 3.6H6.1L3.84 15ZM13.7534 15L16.5534 0.999999H19.8134L17.0134 15H13.7534ZM20.7159 15L23.5159 0.999999H26.1959L32.2159 11.14L31.1559 11.08L33.1559 0.999999H36.3559L33.5559 15H30.8959L24.8559 4.86L25.9359 4.92L23.9159 15H20.7159ZM42.1483 15.24C41.3883 15.24 40.6483 15.1667 39.9283 15.02C39.2216 14.8867 38.5749 14.7 37.9883 14.46C37.4149 14.22 36.9283 13.96 36.5283 13.68L37.8483 11.18C38.2883 11.4867 38.7549 11.7533 39.2483 11.98C39.7549 12.1933 40.2816 12.36 40.8283 12.48C41.3749 12.5867 41.9216 12.64 42.4683 12.64C43.0683 12.64 43.5816 12.5733 44.0083 12.44C44.4483 12.3067 44.7816 12.12 45.0083 11.88C45.2483 11.64 45.3683 11.3467 45.3683 11C45.3683 10.68 45.2416 10.42 44.9883 10.22C44.7349 10.02 44.4016 9.85333 43.9883 9.72C43.5883 9.57333 43.1416 9.43333 42.6483 9.3C42.1549 9.16667 41.6549 9.01333 41.1483 8.84C40.6549 8.65333 40.2016 8.42667 39.7883 8.16C39.3883 7.88 39.0616 7.52667 38.8083 7.1C38.5549 6.67333 38.4283 6.14 38.4283 5.5C38.4283 4.54 38.6883 3.70667 39.2083 3C39.7416 2.29333 40.4883 1.74667 41.4483 1.36C42.4083 0.96 43.5349 0.76 44.8283 0.76C45.7749 0.76 46.6683 0.866666 47.5083 1.08C48.3483 1.28 49.0683 1.57333 49.6683 1.96L48.4483 4.44C47.9149 4.08 47.3216 3.81333 46.6683 3.64C46.0149 3.45333 45.3416 3.36 44.6483 3.36C44.0216 3.36 43.4816 3.43333 43.0283 3.58C42.5883 3.72667 42.2483 3.93333 42.0083 4.2C41.7816 4.45333 41.6683 4.74667 41.6683 5.08C41.6683 5.41333 41.7883 5.68667 42.0283 5.9C42.2816 6.1 42.6149 6.27333 43.0283 6.42C43.4416 6.55333 43.8949 6.68667 44.3883 6.82C44.8816 6.95333 45.3749 7.10667 45.8683 7.28C46.3616 7.45333 46.8149 7.67333 47.2283 7.94C47.6416 8.20667 47.9749 8.54667 48.2283 8.96C48.4816 9.36 48.6083 9.86667 48.6083 10.48C48.6083 11.44 48.3416 12.28 47.8083 13C47.2749 13.7067 46.5216 14.26 45.5483 14.66C44.5883 15.0467 43.4549 15.24 42.1483 15.24ZM53.7822 15L52.0022 0.999999H55.2022L56.7622 13.38H55.0822L61.7022 0.999999H64.7022L66.2022 13.38H64.6022L71.1822 0.999999H74.4022L67.0022 15H63.5422L62.1422 4.12H63.1222L57.2622 15H53.7822ZM73.7909 15L76.5909 0.999999H79.8509L77.0509 15H73.7909ZM80.7534 15L83.5534 0.999999H86.1934L90.1734 10.92L88.7734 10.9L96.5334 0.999999H99.3134L96.5334 15H93.4934L95.3534 5.62H95.9734L89.7934 13.52H88.3534L85.0534 5.6L85.6534 5.66L83.7934 15H80.7534ZM100.255 15L103.055 0.999999H105.695L109.675 10.92L108.275 10.9L116.035 0.999999H118.815L116.035 15H112.995L114.855 5.62H115.475L109.295 13.52H107.855L104.555 5.6L105.155 5.66L103.295 15H100.255ZM124.417 6.64H131.157L130.657 9.16H123.917L124.417 6.64ZM123.497 12.4H131.137L130.597 15H119.757L122.557 0.999999H133.137L132.597 3.6H125.257L123.497 12.4ZM133.575 15L136.375 0.999999H142.075C143.821 0.999999 145.168 1.38 146.115 2.14C147.075 2.9 147.555 3.96667 147.555 5.34C147.555 6.51333 147.275 7.53333 146.715 8.4C146.168 9.25333 145.381 9.91333 144.355 10.38C143.341 10.8467 142.141 11.08 140.755 11.08H136.195L137.895 9.66L136.835 15H133.575ZM142.575 15L139.715 9.92H143.115L145.995 15H142.575ZM137.815 10.04L136.695 8.5H140.875C141.955 8.5 142.788 8.26 143.375 7.78C143.975 7.28667 144.275 6.57333 144.275 5.64C144.275 4.96 144.041 4.46 143.575 4.14C143.121 3.80667 142.481 3.64 141.655 3.64H137.715L139.415 2.06L137.815 10.04ZM153.562 15.24C152.802 15.24 152.062 15.1667 151.342 15.02C150.635 14.8867 149.988 14.7 149.402 14.46C148.828 14.22 148.342 13.96 147.942 13.68L149.262 11.18C149.702 11.4867 150.168 11.7533 150.662 11.98C151.168 12.1933 151.695 12.36 152.242 12.48C152.788 12.5867 153.335 12.64 153.882 12.64C154.482 12.64 154.995 12.5733 155.422 12.44C155.862 12.3067 156.195 12.12 156.422 11.88C156.662 11.64 156.782 11.3467 156.782 11C156.782 10.68 156.655 10.42 156.402 10.22C156.148 10.02 155.815 9.85333 155.402 9.72C155.002 9.57333 154.555 9.43333 154.062 9.3C153.568 9.16667 153.068 9.01333 152.562 8.84C152.068 8.65333 151.615 8.42667 151.202 8.16C150.802 7.88 150.475 7.52667 150.222 7.1C149.968 6.67333 149.842 6.14 149.842 5.5C149.842 4.54 150.102 3.70667 150.622 3C151.155 2.29333 151.902 1.74667 152.862 1.36C153.822 0.96 154.948 0.76 156.242 0.76C157.188 0.76 158.082 0.866666 158.922 1.08C159.762 1.28 160.482 1.57333 161.082 1.96L159.862 4.44C159.328 4.08 158.735 3.81333 158.082 3.64C157.428 3.45333 156.755 3.36 156.062 3.36C155.435 3.36 154.895 3.43333 154.442 3.58C154.002 3.72667 153.662 3.93333 153.422 4.2C153.195 4.45333 153.082 4.74667 153.082 5.08C153.082 5.41333 153.202 5.68667 153.442 5.9C153.695 6.1 154.028 6.27333 154.442 6.42C154.855 6.55333 155.308 6.68667 155.802 6.82C156.295 6.95333 156.788 7.10667 157.282 7.28C157.775 7.45333 158.228 7.67333 158.642 7.94C159.055 8.20667 159.388 8.54667 159.642 8.96C159.895 9.36 160.022 9.86667 160.022 10.48C160.022 11.44 159.755 12.28 159.222 13C158.688 13.7067 157.935 14.26 156.962 14.66C156.002 15.0467 154.868 15.24 153.562 15.24ZM174.235 0.999999H177.475L174.675 15H171.435L174.235 0.999999ZM165.095 15H161.835L164.635 0.999999H167.895L165.095 15ZM172.835 9.26H166.015L166.555 6.52H173.375L172.835 9.26ZM185.648 15.24C184.234 15.24 183.014 14.9867 181.988 14.48C180.974 13.96 180.194 13.2467 179.648 12.34C179.101 11.42 178.828 10.36 178.828 9.16C178.828 7.96 179.034 6.85333 179.448 5.84C179.861 4.81333 180.448 3.92667 181.208 3.18C181.981 2.42 182.894 1.82667 183.948 1.4C185.014 0.973333 186.194 0.76 187.488 0.76C188.901 0.76 190.114 1.02 191.128 1.54C192.154 2.04667 192.941 2.76 193.488 3.68C194.034 4.58667 194.308 5.64 194.308 6.84C194.308 8.04 194.101 9.15333 193.688 10.18C193.274 11.1933 192.681 12.08 191.908 12.84C191.148 13.5867 190.234 14.1733 189.168 14.6C188.114 15.0267 186.941 15.24 185.648 15.24ZM185.928 12.48C186.714 12.48 187.421 12.34 188.048 12.06C188.688 11.7667 189.228 11.3667 189.668 10.86C190.108 10.3533 190.441 9.77333 190.668 9.12C190.908 8.45333 191.028 7.75333 191.028 7.02C191.028 6.32667 190.881 5.72 190.588 5.2C190.294 4.66667 189.861 4.25333 189.288 3.96C188.728 3.66667 188.034 3.52 187.208 3.52C186.421 3.52 185.714 3.66667 185.088 3.96C184.461 4.24 183.921 4.63333 183.468 5.14C183.028 5.64667 182.688 6.23333 182.448 6.9C182.221 7.55333 182.108 8.24667 182.108 8.98C182.108 9.67333 182.254 10.2867 182.548 10.82C182.854 11.34 183.288 11.7467 183.848 12.04C184.421 12.3333 185.114 12.48 185.928 12.48ZM195.663 15L198.463 0.999999H204.123C205.869 0.999999 207.216 1.38667 208.163 2.16C209.123 2.92 209.603 3.98667 209.603 5.36C209.603 6.53333 209.329 7.56 208.783 8.44C208.236 9.30667 207.449 9.97333 206.423 10.44C205.409 10.9067 204.203 11.14 202.803 11.14H198.263L199.983 9.66L198.923 15H195.663ZM199.903 10.04L198.763 8.5H202.943C204.009 8.5 204.836 8.26 205.423 7.78C206.023 7.28667 206.323 6.57333 206.323 5.64C206.323 4.96 206.096 4.46 205.643 4.14C205.189 3.80667 204.549 3.64 203.723 3.64H199.783L201.503 2.06L199.903 10.04Z" fill="#334155"/>
</svg>
